<svg xmlns="http://www.w3.org/2000/svg" viewBox="0 0 533.5 544.3"><path fill="#4285F4" d="M533.5 278.4c0-17.4-1.4-34.1-4-50.2H272v95h147.2c-6.3 34-25.1 62.8-53.8 82v68h86.7c50.7-46.7 81.4-115.6 81.4-194.8z"/><path fill="#34A853" d="M272 544.3c73.7 0 135.6-24.4 180.8-66.4l-86.7-68c-24.1 16.2-55 25.9-94.1 25.9-72 0-133-48.6-154.8-114.2H28.9v71.5C74.4 490.6 166.6 544.3 272 544.3z"/><path fill="#FBBC05" d="M117.2 328.1c-11.7-34.9-11.7-72.7 0-107.6V149h-88.3C6 204.1 0 242.8 0 272s6 67.9 28.9 123.1l88.3-67z"/><path fill="#EA4335" d="M272 107.7c39.4 0 75 13.6 103 40.4l77.1-77.1C407.6 24.6 345.7 0 272 0 166.6 0 74.4 53.7 28.9 149l88.3 71.5C139 156.3 200 107.7 272 107.7z"/></svg>